<?xml version="1.0" encoding="utf-8"?>
<!-- Generator: Adobe Illustrator 26.5.0, SVG Export Plug-In . SVG Version: 6.00 Build 0)  -->
<svg version="1.1" id="Layer_1" xmlns="http://www.w3.org/2000/svg" xmlns:xlink="http://www.w3.org/1999/xlink" x="0px" y="0px"
	 viewBox="0 0 595 165" enable-background="new 0 0 595 165" xml:space="preserve">
<path fill-rule="evenodd" clip-rule="evenodd" fill="#FFFFFF" d="M305.2,13h-24.4l-2.6,12.6h23.9c4.7,0,8.5-0.5,9.7-6.1
	C313,13.8,310.1,13,305.2,13L305.2,13z M476.8,12.7l-14.1,19.4h20.2L476.8,12.7L476.8,12.7z M54,12.7L39.9,32.2h20.2L54,12.7
	L54,12.7z M358.2,0.1l-10.9,52.5h-15.9l11-52.5C342.4,0.1,358.2,0.1,358.2,0.1z M548.9,0.1L571.1,38L579,0.1h16l-10.9,52.5h-24.8
	L537,15.2l-7.8,37.4h-15.8l10.9-52.5L548.9,0.1L548.9,0.1z M489.7,0.1l17.6,52.5h-17.5l-3.2-9.4h-32.3l-6.7,9.4H430l38.9-52.5
	C468.8,0.1,489.7,0.1,489.7,0.1z M432.5,18.4l-0.2,0.8h-15.8c1.2-7.8-5.8-6.2-11.7-6.2c-4.7,0-9.4,0.1-14.2,0.1
	c-3,0-5.7,0.4-7.9,3.4c-1.1,1.5-2.5,8-2.9,9.9c-2.6,12.5-1.8,13.7,10.8,13.7c4.7,0,9.4-0.1,14.1-0.1c5.7,0,8.2-1.3,9.6-7.4h16.1
	c-3,14.6-6.2,20.2-22,20.2h-27.5c-18.1,0-21.4-5.3-17.7-23.1c1.6-7.6,2.5-18.6,9.7-24.5c5.7-4.7,14.4-4.9,20.7-4.9
	c6.1,0,12.2-0.1,18.3-0.1h5C429.6,0.1,436.1,1.4,432.5,18.4L432.5,18.4z M255.5,0.1L252.9,13h-41l-1.7,8.3H249l-2.2,10.6H208l-1.6,8
	h41.9l-2.7,12.8h-57.8l10.9-52.5h56.8V0.1z M125.6,0.1l11.1,33.7l25.2-33.7h25.6l-10.9,52.5h-15.8l7.9-37.8L139,52.6h-12l-13.4-37.5
	l-7.8,37.5H89.7l10.9-52.5L125.6,0.1L125.6,0.1z M67,0.1l17.6,52.5H67l-3.2-9.4H31.6l-6.7,9.4H7.2l39-52.5H67L67,0.1z M315.5,0.1
	c13.7,0,14.4,6.5,11.8,18.9c-1.5,7.5-3.8,10.4-11.6,13.1c7.9,2.6,7.2,7,5.5,15.1l-1.1,5.5h-15.9l0.7-3.5c1.3-6.1,2.5-9.6-4.5-10
	c-3-0.1-5.9-0.2-8.8-0.2c-5.4,0-10.9,0.1-16.3,0.1l-2.8,13.7h-16l10.9-52.5L315.5,0.1L315.5,0.1z M258.6,81.3h-24.3L231.7,94h23.9
	c4.7,0,8.5-0.4,9.7-6.2C266.4,82.1,263.6,81.3,258.6,81.3z M561.5,81.3h-24.3L534.6,94h23.9c4.7,0,8.5-0.4,9.7-6.2
	C569.3,82.1,566.5,81.3,561.5,81.3z M104,81.2c-4.6,0-9.1,0.2-13.7,0.2c-8.2,0-10.7,1.3-12.5,9.9l-1.1,5.2
	c-2.6,12.7,0.6,11.9,12.2,11.9c4.6,0,9.2-0.1,13.8-0.1c8.1,0,10.8-1.2,12.6-9.8l1-5C118.9,80.6,115.6,81.2,104,81.2z M571.8,68.5
	c13.7,0,14.4,6.5,11.8,18.9c-1.6,7.5-3.9,10.3-11.6,13c7.9,2.6,7.2,7.1,5.5,15.1l-1.1,5.5h-15.9l0.7-3.5c1.3-6.1,2.5-9.6-4.5-10.1
	c-2.9-0.1-5.9-0.2-8.8-0.2c-5.4,0-10.9,0.1-16.2,0.1l-2.8,13.6h-16l10.9-52.4H571.8z M515,68.5l-2.7,12.8h-41l-1.7,8.3h38.8
	l-2.2,10.6h-38.8l-1.7,7.9h41.9l-2.7,12.8h-57.8L458,68.4h57V68.5z M450.8,68.5l-2.7,12.8h-22.6l-8.3,39.6h-15.9l8.3-39.6h-22.2
	l2.7-12.8H450.8L450.8,68.5z M369.6,68.5c5.1,0,10.6,1.1,12.5,5.8c1.1,2.5,0,7.7-0.6,10.7l-0.4,1.6h-15.6c0.6-4.8-1.3-5.3-5.6-5.3
	h-18.2c-3.4,0-6.9,0.1-7.8,4.5c-0.7,3.4,2.5,3.8,5.1,3.9c9.6,0.5,19.6,0.1,29.2,0.6c8.9,0.5,13.5,3.4,11.5,13l-0.2,1.1
	c-3.1,15-14,16.4-26.1,16.5h-27.1c-11.2,0-15.1-4.3-12.4-15.4l0.4-1.8h15.6c-0.4,3.4,0.7,4.4,4.1,4.4h22.3c2.5,0,6.5-0.3,7.2-3.6
	c0.7-3.4-1.8-3.8-4.5-3.9c-9.8-0.6-19.8-0.2-29.7-0.7c-10-0.6-12.9-4-11.3-14.2l0.2-1.5c2.4-15.1,11.5-15.7,24.1-15.7H369.6z
	 M311.4,68.5l-11,52.5h-15.9l10.9-52.5H311.4L311.4,68.5z M269,68.5c13.7,0,14.4,6.5,11.8,18.9c-1.6,7.5-3.9,10.3-11.6,13
	c7.8,2.6,7.1,7.1,5.5,15.1l-1.1,5.5h-15.9l0.7-3.5c1.3-6.1,2.5-9.6-4.4-10.1c-2.9-0.1-5.9-0.2-8.8-0.2c-5.4,0-10.9,0.1-16.3,0.1
	l-2.8,13.6h-16l11-52.5H269V68.5z M161.1,68.5c-1.4,6.7-2.9,13.4-4.3,20c-0.7,3.4-1.4,6.7-1.9,10.1c-1,5.9-0.5,9.2,5.9,9.6
	c1.8,0.1,3.6,0.1,5.5,0.1c3.6,0,7.1-0.1,10.7-0.1c8.7,0,10.3-2.3,12-10.3l0.7-3.2l5.5-26.2h15.7l-7.2,34.6
	c-2.9,13.8-11,17.9-23.8,17.9h-29.1c-18,0-13.2-17.4-10.5-30.4c1.5-7.3,3.2-14.7,4.7-22.1H161.1z M63.8,68.5l-2.7,12.8H38.5
	l-8.3,39.7H14.4l8.3-39.6H0.5l2.7-12.8h60.6V68.5z M133.9,84.6c-0.3,1.7-0.6,3.5-1,5.3c-1.4,7-3.2,21.2-9.2,26.4
	c-4.9,4.1-14.4,4.7-19.9,4.7c-6,0-12.1,0.2-18.1,0.2h-2.1c-20.4,0-28.2-0.7-23-24.5l1.7-7.9c3.8-17.5,11.1-20.3,27.1-20.3
	c6.5,0,13-0.1,19.5-0.1C122.7,68.3,137,66.7,133.9,84.6z M334.3,145.2c-0.9,0-1.7,0.3-2.3,1c-0.7,0.7-1,1.4-1,2.3c0,1,0.3,1.7,1,2.4
	c1.3,1.3,3.4,1.3,4.7,0c0.7-0.7,1-1.4,1-2.4c0-0.9-0.3-1.7-1-2.3C336,145.6,335.2,145.2,334.3,145.2z M205.9,149.9v6H0v-6H205.9z
	 M594.8,149.9v6H388.9v-6H594.8z M323.2,141.3V164h-4.6v-18.2h-4.2l2.6-4.4h6.2V141.3z M351.6,140.9c2,0,3.7,0.6,5,1.8
	c1.3,1.2,2,2.8,2,4.8c0,1.8-0.6,3.3-1.8,4.5c1.5,1.2,2.2,2.9,2.2,5.1c0,2.1-0.7,3.9-2.2,5.2c-1.4,1.3-3.3,2-5.4,2
	c-2.8,0-4.9-1.1-6.3-3.1c-0.6-0.9-0.9-2.1-1.1-3.6l-0.1-0.8h4.5l0.1,0.6c0.1,0.9,0.5,1.5,1,1.9c0.5,0.4,1.2,0.7,2,0.7
	c0.8,0,1.5-0.3,2.1-0.8c0.5-0.6,0.8-1.3,0.8-2.2c0-1.2-0.4-2-1.2-2.4c-0.3-0.2-1-0.4-2.4-0.4h-0.7V150h0.7c1.7,0,2.2-0.2,2.4-0.3
	c0.6-0.4,0.9-1,0.9-2c0-0.7-0.2-1.3-0.7-1.7c-0.5-0.5-1.1-0.7-1.8-0.7s-1.2,0.2-1.6,0.5c-0.3,0.3-0.6,1-0.8,1.8l-0.1,0.6h-4.6
	l0.1-0.8c0.4-2.2,1.1-3.8,2.3-4.8C347.9,141.4,349.6,140.9,351.6,140.9z M369.1,140.9c2,0,3.7,0.6,5,1.8c1.3,1.2,2,2.8,2,4.8
	c0,1.8-0.6,3.3-1.9,4.5c1.5,1.2,2.2,2.9,2.2,5.1c0,2.1-0.7,3.9-2.2,5.2c-1.4,1.3-3.3,2-5.4,2c-2.8,0-4.9-1.1-6.3-3.1
	c-0.6-0.9-0.9-2.1-1.1-3.6l-0.1-0.8h4.5l0.1,0.6c0.1,0.9,0.5,1.5,1,1.9c0.5,0.4,1.2,0.7,2,0.7s1.5-0.3,2.1-0.8
	c0.5-0.6,0.8-1.3,0.8-2.2c0-1.2-0.4-2-1.2-2.4c-0.3-0.2-1-0.4-2.4-0.4h-0.7V150h0.7c1.6,0,2.2-0.2,2.3-0.3c0.6-0.4,0.9-1,0.9-2
	c0-0.7-0.2-1.3-0.7-1.7c-0.5-0.5-1.1-0.7-1.8-0.7c-0.7,0-1.2,0.2-1.6,0.5c-0.3,0.3-0.6,1-0.8,1.8l-0.1,0.6h-4.5l0.1-0.8
	c0.4-2.2,1.1-3.8,2.3-4.8C365.5,141.4,367.1,140.9,369.1,140.9z M241.4,141.7v22.7h-4.6v-22.7H241.4z M302.5,141.7v4.4H294v3.7h8.3
	v4.4H294v5.7h8.5v4.4h-13.2v-22.7L302.5,141.7L302.5,141.7z M227.1,141.3c2.7,0,4.8,1.3,6.4,3.9l0.3,0.6l-3.9,2.3l-0.4-0.6
	c-0.5-0.9-0.9-1.3-1.1-1.4c-0.4-0.2-0.8-0.3-1.4-0.3c-0.7,0-1.3,0.2-1.8,0.6c-0.4,0.4-0.6,0.8-0.6,1.3c0,0.7,0.6,1.3,1.9,1.8
	l2.1,0.9c1.8,0.7,3.2,1.7,4.1,2.8c0.9,1.1,1.4,2.5,1.4,4.1c0,2.2-0.7,4-2.2,5.4c-1.4,1.4-3.3,2.1-5.4,2.1c-2,0-3.7-0.6-5-1.8
	c-1.3-1.2-2.1-2.9-2.4-5l-0.1-0.7l4.7-1l0.1,0.8c0.2,1.4,0.4,2,0.6,2.2c0.5,0.7,1.3,1.1,2.3,1.1c0.8,0,1.5-0.2,2-0.8
	c0.5-0.5,0.8-1.2,0.8-2c0-0.3,0-0.6-0.1-0.9c-0.1-0.3-0.2-0.5-0.4-0.7c-0.2-0.2-0.5-0.5-0.8-0.7c-0.4-0.2-0.8-0.4-1.3-0.7l-2-0.8
	c-3.2-1.3-4.8-3.4-4.8-6.1c0-1.8,0.7-3.3,2.1-4.5C223.4,141.9,225.1,141.3,227.1,141.3z M279.5,141.3c2,0,4,0.6,5.9,1.7l0.4,0.2v5.7
	l-1.2-1c-1.7-1.4-3.5-2.2-5.3-2.2c-2,0-3.6,0.7-5,2.1c-1.4,1.4-2.1,3.1-2.1,5.2s0.7,3.7,2.1,5.2c1.4,1.4,3,2.1,5,2.1
	c1,0,1.9-0.2,2.6-0.5c0.4-0.2,0.8-0.4,1.3-0.7c0.5-0.3,0.9-0.7,1.4-1.1l1.2-1v5.8l-0.4,0.2c-1.9,1.1-4,1.7-6.1,1.7
	c-3.2,0-6-1.1-8.3-3.4c-2.3-2.3-3.4-5.1-3.4-8.2c0-2.9,1-5.5,2.9-7.7C272.7,142.7,275.8,141.3,279.5,141.3L279.5,141.3z
	 M244.9,141.6l15.5,11.9v-11.8h4.6v23.2L249.5,153v11.5h-4.6V141.6L244.9,141.6z M334.2,140.9c2.1,0,4,0.8,5.6,2.3
	c1.6,1.5,2.4,3.3,2.4,5.4c0,1.8-0.8,3.7-2.2,5.8l-7.9,10.7l-3.5-2.6l4.6-6.3c-1.8-0.1-3.4-0.8-4.7-2.2c-1.4-1.4-2.1-3.2-2.1-5.2
	c0-2.1,0.8-4,2.3-5.5C330.3,141.7,332.1,140.9,334.2,140.9z"/>
</svg>
