<?xml version="1.0" encoding="utf-8"?>
<!-- Generator: Adobe Illustrator 26.5.0, SVG Export Plug-In . SVG Version: 6.00 Build 0)  -->
<svg version="1.1" id="layer" xmlns="http://www.w3.org/2000/svg" xmlns:xlink="http://www.w3.org/1999/xlink" x="0px" y="0px"
	 viewBox="0 0 600 244" enable-background="new 0 0 600 244" xml:space="preserve">
<path fill="#FFFFFF" d="M12.4,195v18.4h33.4V195h12.5v48.9H45.8v-20.5H12.4v20.5H0V195H12.4z M565.6,195l28,48.9h-13.9l-5.7-10.3
	h-29.4l-5.6,10.3h-12.5l2.3-4.1l25.4-44.8H565.6L565.6,195z M138.8,195c4.6,0,8.3,0.9,10.1,2.5c2,1.7,2.3,6.6,2.3,10.8v0.6h-12v-4.2
	h-33.4v28.9h33.4v-9.4h-18.1V215h30v17c0,4.7-0.9,7.7-2.7,9.4c-1.8,1.7-5,2.5-9.7,2.5h-32.9c-4.7,0-8-0.8-9.7-2.5
	c-1.8-1.7-2.7-4.7-2.7-9.4v-25.1c0-4.7,0.9-7.8,2.7-9.4c1.8-1.7,5-2.5,9.7-2.5H138.8z M175,195v18.4h33.4V195h12.5v48.9h-12.5v-20.5
	H175v20.5h-12.3V195H175z M293.1,195c4.5,0,9,0.9,10.8,2.5c2,1.6,1.6,6.6,1.6,10.6v0.6h-10.9v-4.2h-30v9.1h29.1c4.8,0,8,0.8,9.8,2.5
	s2.7,4.7,2.7,9.4v6.6c0,4.7-0.9,7.7-2.7,9.4c-1.8,1.7-5,2.5-9.7,2.5h-29.2c-4.8,0-8.2-0.8-10-2.5c-2-1.8-1.8-7.3-1.8-11.3h11v3.6
	h31.4v-9.6h-29.1c-4.8,0-8-0.8-9.8-2.5c-1.8-1.7-2.7-4.7-2.7-9.4V207c0-4.7,0.9-7.8,2.7-9.4c1.8-1.7,5-2.5,9.7-2.5L293.1,195z
	 M82.1,195v48.9H69.7V195H82.1L82.1,195z M444.8,195c7.6,0,11.4,3.3,11.4,9.9V216c0,6.5-3.8,9.8-11.4,9.8h-4.5l21.9,18h-17.9
	l-19.1-18h-9.6v18h-12.3V195H444.8z M509.1,195c7.6,0,11.4,3.3,11.4,9.9V216c0,6.5-3.8,9.8-11.4,9.8h-4.5l21.9,18h-17.9l-19.1-18
	h-9.6v18h-12.3V195H509.1z M391.3,195v9.3h-37.7v9.7h22v9.3h-22v10.5h38.1V244h-50.4v-49H391.3z M329.9,195v48.9h-12.3V195H329.9z
	 M559.5,206.2l-9.5,17.5h18.7C568.7,223.7,559.5,206.2,559.5,206.2z M504.1,204.2h-24.2v12.3h24.2c2,0,2.9-0.3,3.3-0.5
	c0.7-0.4,1.1-1.4,1.1-2.7v-5.8c0-1.4-0.4-2.3-1.1-2.8C507,204.5,506.1,204.2,504.1,204.2z M439.8,204.2h-24.2v12.3h24.2
	c2,0,2.9-0.3,3.3-0.5c0.7-0.4,1.1-1.4,1.1-2.7v-5.8c0-1.4-0.4-2.3-1.1-2.8C442.7,204.5,441.8,204.2,439.8,204.2z M590.9,195
	c2.5,0,4.6,0.8,6.4,2.6c1.8,1.7,2.7,3.8,2.7,6.3s-0.9,4.6-2.7,6.4c-1.7,1.7-4,2.7-6.4,2.7c-2.5,0-4.6-0.9-6.4-2.7
	c-1.7-1.7-2.6-4-2.6-6.4c0-2.5,0.9-4.6,2.7-6.3C586.3,195.8,588.4,195,590.9,195z M590.9,196.2c-2.1,0-3.9,0.7-5.4,2.3
	c-1.5,1.4-2.3,3.4-2.3,5.5s0.7,4,2.2,5.5s3.4,2.3,5.5,2.3c2.2,0,4-0.8,5.5-2.3s2.3-3.4,2.3-5.5s-0.8-4.1-2.3-5.5
	C594.9,196.9,593,196.2,590.9,196.2L590.9,196.2z M590.7,199c1.3,0,2.2,0.1,2.8,0.3c1,0.5,1.5,1.3,1.5,2.5c0,0.9-0.3,1.6-1,1.9
	c-0.4,0.3-0.9,0.4-1.4,0.5c0.7,0.1,1.3,0.5,1.7,1c0.4,0.5,0.6,1,0.6,1.6v0.7c0,0.2,0,0.4,0,0.7c0,0.2,0,0.4,0.1,0.5v0.1h-1.7v-0.1
	c0-0.1-0.1-0.1-0.1-0.1v-1.1c0-1.2-0.3-1.9-1-2.3c-0.3-0.2-1-0.3-2-0.3h-1.4v3.9h-1.7V199H590.7L590.7,199z M590.5,200.2H589v3.5
	h1.6c0.8,0,1.3-0.1,1.7-0.2c0.7-0.2,1-0.8,1-1.5s-0.2-1.2-0.7-1.5C592.2,200.3,591.4,200.2,590.5,200.2L590.5,200.2z M294.5,0
	l15.4,14.4L251.8,69c8,0.4,16.1,1.2,24.4,2.2L323,26.9l16.2,15.2l-35.9,33.7c7,1.5,14.1,3.2,21.3,5.2l28-26.3l16.2,15.2l-20,18.7
	c43.6,15.5,89.2,42,134,83.2h-160c-10-11.2-20.4-21.4-31.1-29.7l-31.7,29.7h-32.2l45.4-42.6c-5.4-3.4-11-6.5-16.7-9.4l-55.4,52.1
	h-31.5l65.4-61.7c-6.6-2.5-13.3-4.7-20-6.6l-72.7,68.3h-32.2L189.5,98c-60.1-9.6-108.2,5.9-108.2,5.9l-1.5-2.9
	c0,0,57.9-30,141.1-32.4L294.5,0L294.5,0z"/>
</svg>
