<?xml version="1.0" encoding="utf-8"?>
<!-- Generator: Adobe Illustrator 26.5.0, SVG Export Plug-In . SVG Version: 6.00 Build 0)  -->
<svg version="1.1" id="Layer_1" xmlns="http://www.w3.org/2000/svg" xmlns:xlink="http://www.w3.org/1999/xlink" x="0px" y="0px"
	 viewBox="0 0 114 109" enable-background="new 0 0 114 109" xml:space="preserve">
<rect x="-4.7" y="-7.2" fill="none" width="123.4" height="123.4"/>
<g>
	<g>
		<polygon fill="#FFFFFF" points="63.3,105.2 62.5,108.9 61,108.9 61.8,105.2 59.7,105.2 60,104 65.6,104 65.4,105.2 		"/>
		<path fill="#FFFFFF" d="M71.2,108.4c-0.5,0.4-1.3,0.4-1.9,0.4c-0.6,0-1.1,0-1.7,0c-2,0-2.8,0-2.3-2.3l0.2-0.7
			c0.4-1.6,1-1.9,2.5-1.9c0.6,0,1.2,0,1.8,0c1.3,0,2.6-0.2,2.3,1.5c0,0.2-0.1,0.3-0.1,0.5C71.8,106.6,71.8,108,71.2,108.4
			 M70.5,106.3c0.2-1.2-0.1-1.1-1.1-1.1c-0.4,0-0.9,0-1.3,0c-0.8,0-1,0.1-1.2,0.9l-0.1,0.5c-0.2,1.2,0.1,1.1,1.1,1.1
			c0.4,0,0.9,0,1.3,0c0.8,0,1-0.1,1.2-0.9L70.5,106.3z"/>
		<path fill="#FFFFFF" d="M76.4,108.9h-2.7c-1.7,0-1.2-1.6-1-2.8c0.1-0.7,0.3-1.4,0.4-2.1h1.5c-0.1,0.6-0.3,1.2-0.4,1.9
			c-0.1,0.3-0.1,0.6-0.2,0.9c-0.1,0.5,0,0.9,0.5,0.9c0.2,0,0.3,0,0.5,0c0.3,0,0.7,0,1,0c0.8,0,1-0.2,1.1-1l0.1-0.3l0.5-2.4h1.5
			l-0.7,3.2C78.3,108.5,77.5,108.9,76.4,108.9"/>
		<path fill="#FFFFFF" d="M84.7,107c0.7,0.2,0.7,0.7,0.5,1.4l-0.1,0.5h-1.5l0.1-0.3c0.1-0.6,0.2-0.9-0.4-0.9c-0.3,0-0.6,0-0.8,0
			c-0.5,0-1,0-1.5,0l-0.3,1.3h-1.5l1-4.9h4.5c1.3,0,1.3,0.6,1.1,1.8C85.6,106.4,85.4,106.7,84.7,107 M83.7,105.2h-2.3l-0.2,1.2h2.2
			c0.4,0,0.8,0,0.9-0.6C84.4,105.3,84.2,105.2,83.7,105.2"/>
		<polygon fill="#FFFFFF" points="86.1,108.9 87.1,104 88.6,104 87.6,108.9 		"/>
		<path fill="#FFFFFF" d="M92.5,108.9h-2.4c-1,0-1.4-0.4-1.2-1.4v-0.2h1.5c0,0.3,0.1,0.4,0.4,0.4h2.1c0.2,0,0.6,0,0.7-0.3
			c0.1-0.3-0.2-0.4-0.4-0.4c-0.9-0.1-1.8,0-2.8-0.1c-0.9-0.1-1.2-0.4-1.1-1.3v-0.1c0.2-1.4,1.1-1.5,2.2-1.5H94c0.5,0,1,0.1,1.2,0.5
			c0.1,0.2,0,0.7-0.1,1v0.2h-1.5c0.1-0.4-0.1-0.5-0.5-0.5h-1.7c-0.3,0-0.6,0-0.7,0.4c-0.1,0.3,0.2,0.4,0.5,0.4
			c0.9,0.1,1.8,0,2.7,0.1c0.8,0,1.3,0.3,1.1,1.2v0.1C94.7,108.8,93.6,108.9,92.5,108.9"/>
		<polygon fill="#FFFFFF" points="99.3,105.2 98.5,108.9 97,108.9 97.8,105.2 95.7,105.2 96,104 101.5,104 101.3,105.2 		"/>
		<polygon fill="#FFFFFF" points="101.2,108.9 102.2,104 107.5,104 107.3,105.2 103.4,105.2 103.3,106 106.9,106 106.7,106.9 
			103.1,106.9 102.9,107.7 106.8,107.7 106.6,108.9 		"/>
		<path fill="#FFFFFF" d="M112.8,107c0.7,0.2,0.7,0.7,0.5,1.4l-0.1,0.5h-1.5l0.1-0.3c0.1-0.6,0.2-0.9-0.4-0.9c-0.3,0-0.6,0-0.8,0
			c-0.5,0-1,0-1.5,0l-0.3,1.3h-1.5l1-4.9h4.5c1.3,0,1.3,0.6,1.1,1.8C113.8,106.4,113.6,106.7,112.8,107 M111.8,105.2h-2.3l-0.2,1.2
			h2.2c0.4,0,0.8,0,0.9-0.6C112.6,105.3,112.3,105.2,111.8,105.2"/>
		<path fill="#FFFFFF" d="M5.6,108.9L5.3,108h-3l-0.6,0.9H0.1l3.5-4.9h1.9l1.6,4.9H5.6z M4.3,105.2L3,107h1.9L4.3,105.2z"/>
		<polygon fill="#FFFFFF" points="14.3,108.9 14.9,105.4 12.2,108.9 11.1,108.9 9.9,105.4 9.1,108.9 7.7,108.9 8.7,104 11,104 
			12,107.1 14.4,104 16.7,104 15.7,108.9 		"/>
		<polygon fill="#FFFFFF" points="16.7,108.9 17.7,104 23,104 22.8,105.2 19,105.2 18.8,106 22.4,106 22.2,107 18.6,107 18.5,107.7 
			22.4,107.7 22.1,108.9 		"/>
		<path fill="#FFFFFF" d="M28.7,107c0.7,0.2,0.7,0.7,0.5,1.4l-0.1,0.5h-1.5l0.1-0.3c0.1-0.6,0.2-0.9-0.4-0.9c-0.3,0-0.6,0-0.8,0
			c-0.5,0-1,0-1.5,0l-0.3,1.3h-1.5l1-4.9h4.5c1.3,0,1.3,0.6,1.1,1.8C29.6,106.5,29.4,106.7,28.7,107 M27.7,105.2h-2.3l-0.2,1.2h2.2
			c0.4,0,0.8,0,0.9-0.6C28.4,105.3,28.1,105.2,27.7,105.2"/>
		<polygon fill="#FFFFFF" points="30.1,108.9 31.1,104 32.6,104 31.6,108.9 		"/>
		<path fill="#FFFFFF" d="M37.3,108.9h-2.6c-1.7,0-2-0.5-1.7-2.2c0.1-0.7,0.2-1.7,0.9-2.3c0.5-0.4,1.3-0.5,1.9-0.5
			c0.6,0,1.1,0,1.7,0c1.5,0,2.3-0.1,1.9,1.7v0.1h-1.5c0.1-0.7-0.5-0.6-1.1-0.6c-0.4,0-0.9,0-1.3,0c-0.3,0-0.5,0-0.7,0.3
			c-0.1,0.1-0.2,0.7-0.3,0.9c-0.2,1.2-0.2,1.3,1,1.3c0.4,0,0.9,0,1.3,0c0.5,0,0.8-0.1,0.9-0.7h1.5C39.1,108.4,38.8,108.9,37.3,108.9
			"/>
		<path fill="#FFFFFF" d="M44.8,108.9l-0.3-0.9h-3l-0.6,0.9h-1.7l3.6-4.9h1.9l1.6,4.9H44.8z M43.6,105.2l-1.3,1.8h1.9L43.6,105.2z"
			/>
		<polygon fill="#FFFFFF" points="51.3,108.9 49.2,105.4 48.5,108.9 47,108.9 48,104 50.3,104 52.4,107.5 53.1,104 54.6,104 
			53.6,108.9 		"/>
		<path fill="#FFFFFF" d="M51.7,106.3c-0.2-0.3-1.4-2.3-1.4-2.3h-1.6C49.2,104.5,50.1,105.5,51.7,106.3"/>
		<path fill="#FFFFFF" d="M51.2,105.5c-0.1-0.2-0.9-1.5-0.9-1.5h-1C49.6,104.3,50.2,105,51.2,105.5"/>
		<path fill="#FFFFFF" d="M50.7,104.6c0-0.1-0.4-0.6-0.4-0.6h-0.4C50,104.1,50.3,104.5,50.7,104.6"/>
		<path fill="#FFFFFF" d="M54.6,104h-1.5c0,0-0.6,2.8-0.6,3c-0.1,0.4,1.2,1.4,1.3,1C53.8,107.8,54.6,104,54.6,104"/>
		<path fill="#FFFFFF" d="M54.6,104h-1.5c0,0-0.4,1.8-0.4,1.9c-0.1,0.4,1.2,1.4,1.3,1C54,106.7,54.6,104,54.6,104"/>
		<path fill="#FFFFFF" d="M54.6,104h-1.5c0,0-0.2,0.8-0.2,0.9c-0.1,0.4,1.2,1.4,1.3,1C54.3,105.7,54.6,104,54.6,104"/>
	</g>
	<g>
		<path fill="#FFFFFF" d="M53.7,93.7v2l0,0c0.1-0.2,0.3-0.3,0.5-0.4s0.5-0.1,0.7-0.1s0.4,0,0.6,0.1s0.4,0.2,0.5,0.4
			c0.2,0.2,0.3,0.4,0.4,0.6c0.1,0.3,0.1,0.6,0.1,0.9c0,0.4,0,0.7-0.1,0.9c-0.1,0.3-0.2,0.5-0.4,0.6c-0.2,0.2-0.3,0.3-0.5,0.4
			s-0.4,0.1-0.6,0.1c-0.3,0-0.5,0-0.8-0.1c-0.2-0.1-0.4-0.2-0.5-0.5l0,0v0.5h-1v-5.4H53.7z M55.4,96.7c0-0.1-0.1-0.3-0.2-0.4
			S55,96.1,54.9,96c-0.1-0.1-0.2-0.1-0.4-0.1c-0.2,0-0.3,0-0.4,0.1s-0.2,0.2-0.3,0.3c-0.1,0.1-0.1,0.2-0.2,0.4
			c0,0.2-0.1,0.3-0.1,0.5s0,0.3,0.1,0.5c0,0.1,0.1,0.3,0.2,0.4c0.1,0.1,0.2,0.2,0.3,0.3c0.1,0.1,0.2,0.1,0.4,0.1
			c0.2,0,0.3,0,0.4-0.1s0.2-0.2,0.3-0.3c0.1-0.1,0.1-0.2,0.2-0.4c0-0.2,0.1-0.3,0.1-0.5S55.5,96.8,55.4,96.7"/>
		<path fill="#FFFFFF" d="M58.7,100.3c-0.2,0.1-0.5,0.2-0.9,0.2c-0.1,0-0.2,0-0.3,0c-0.1,0-0.2,0-0.3,0v-0.9c0.1,0,0.2,0,0.3,0
			c0.1,0,0.2,0,0.3,0c0.1,0,0.2-0.1,0.3-0.2c0.1-0.1,0.1-0.2,0.1-0.3c0-0.1,0-0.2,0-0.2l-1.4-3.6h1.1l0.9,2.7l0,0l0.8-2.7h1.1
			l-1.6,4.4C59,99.9,58.9,100.1,58.7,100.3"/>
		<rect x="0" y="96.4" fill="#FFFFFF" width="46.6" height="0.9"/>
		<rect x="67.2" y="96.4" fill="#FFFFFF" width="46.6" height="0.9"/>
	</g>
	<g>
		<path fill="#FFFFFF" d="M113.4,80.3c0.3,0,0.5-0.2,0.5-0.5v-0.9c0-0.3-0.2-0.5-0.5-0.5h-9.2c-0.3,0-0.5,0.2-0.5,0.5v0.9
			c0,0.3,0.2,0.5,0.5,0.5h2.7c0.3,0,0.5,0.2,0.5,0.5v8.1c0,0.3,0.2,0.5,0.5,0.5h2c0.3,0,0.5-0.2,0.5-0.5v-8.1c0-0.3,0.2-0.5,0.5-0.5
			H113.4z"/>
		<path fill="#FFFFFF" d="M102.6,88.9c0.1,0.3,0.4,0.5,0.7,0.5h2.1c0.3,0,0.4-0.2,0.3-0.5l-4.6-10.2c-0.1-0.3-0.4-0.5-0.7-0.5h-7.3
			c-0.3,0-0.5,0.2-0.5,0.5v10.1c0,0.3,0.2,0.5,0.5,0.5h2.2c0.3,0,0.5-0.2,0.5-0.5v-8.2c0-0.3,0.2-0.5,0.5-0.5h1.9
			c0.3,0,0.6,0.2,0.7,0.5L102.6,88.9z"/>
		<path fill="#FFFFFF" d="M63,87.5c-0.4,0-0.6-0.3-0.6-0.6V79c0-0.4-0.3-0.6-0.6-0.6h-1.7c-0.4,0-0.6,0.3-0.6,0.6v9.8
			c0,0.4,0.3,0.6,0.6,0.6H69c0.4,0,0.6-0.3,0.6-0.6v-0.7c0-0.3-0.3-0.6-0.6-0.6C69,87.5,63,87.5,63,87.5z"/>
		<path fill="#FFFFFF" d="M9.5,89c0.2,0.2,0.5,0.4,0.8,0.4h2.4c0.3,0,0.4-0.2,0.2-0.4l-3.2-4.7c-0.2-0.2-0.2-0.6,0-0.9l3.2-4.7
			c0.2-0.2,0.1-0.4-0.2-0.4h-2.5c-0.3,0-0.6,0.2-0.8,0.4l-2.6,3.8c-0.2,0.2-0.5,0.4-0.8,0.4H3.7c-0.3,0-0.5-0.2-0.5-0.5v-3.6
			c0-0.3-0.2-0.5-0.5-0.5H0.6c-0.3,0-0.5,0.2-0.5,0.5v10.1c0,0.3,0.2,0.5,0.5,0.5h2.1c0.3,0,0.5-0.2,0.5-0.5v-3.6
			c0-0.3,0.2-0.5,0.5-0.5H6c0.3,0,0.6,0.2,0.8,0.4L9.5,89z"/>
		<path fill="#FFFFFF" d="M29.8,87.7c0.1-0.2,0.2-0.7,0-0.9l-3.7-8c-0.1-0.3-0.4-0.5-0.7-0.5h-5.5c-0.3,0-0.6,0.2-0.7,0.5L14.6,89
			c-0.1,0.3,0,0.5,0.3,0.5h2.6c0.3,0,0.6-0.2,0.7-0.5l4.3-9.4c0.1-0.3,0.3-0.3,0.4,0l3.5,7.6c0.1,0.3,0,0.5-0.3,0.5h-4.4
			c-0.3,0-0.5,0.2-0.5,0.5V89c0,0.3,0.2,0.5,0.5,0.5h6.7c0.3,0,0.6-0.2,0.8-0.5L29.8,87.7z"/>
		<path fill="#FFFFFF" d="M50,88.9c0.1,0.3,0.4,0.5,0.7,0.5h2c0.3,0,0.4-0.2,0.3-0.5l-4.5-10.2c-0.1-0.3-0.4-0.5-0.7-0.5H36.3
			c-0.3,0-0.6,0.2-0.7,0.5l-4.5,10.1c-0.1,0.3,0,0.5,0.3,0.5h2c0.3,0,0.6-0.2,0.7-0.5l3.6-8.2c0.1-0.3,0.4-0.5,0.7-0.5h1.5
			c0.3,0,0.5,0.2,0.5,0.5v8.1c0,0.3,0.2,0.5,0.5,0.5h2c0.3,0,0.5-0.2,0.5-0.5v-8.1c0-0.3,0.2-0.5,0.5-0.5h1.7c0.3,0,0.6,0.2,0.7,0.5
			L50,88.9z"/>
		<path fill="#FFFFFF" d="M57.7,79c0-0.4-0.3-0.6-0.6-0.6h-1.7c-0.4,0-0.6,0.3-0.6,0.6v9.8c0,0.4,0.3,0.6,0.6,0.6h1.7
			c0.4,0,0.6-0.3,0.6-0.6V79z"/>
		<path fill="#FFFFFF" d="M74,79c0-0.4-0.3-0.6-0.6-0.6h-1.7c-0.4,0-0.6,0.3-0.6,0.6v9.8c0,0.4,0.3,0.6,0.6,0.6h1.7
			c0.4,0,0.6-0.3,0.6-0.6V79z"/>
		<path fill="#FFFFFF" d="M90.9,87.7c0.1-0.2,0.2-0.7,0-0.9l-3.7-8c-0.1-0.3-0.4-0.5-0.7-0.5H81c-0.3,0-0.6,0.2-0.7,0.5L75.7,89
			c-0.1,0.3,0,0.5,0.3,0.5h2.6c0.3,0,0.6-0.2,0.7-0.5l4.3-9.4c0.1-0.3,0.3-0.3,0.4,0l3.5,7.6c0.1,0.3,0,0.5-0.3,0.5h-4.4
			c-0.3,0-0.5,0.2-0.5,0.5V89c0,0.3,0.2,0.5,0.5,0.5h6.7c0.3,0,0.6-0.2,0.8-0.5L90.9,87.7z"/>
	</g>
	<g>
		<path fill="#FFFFFF" d="M38.2,44.5c1.8,0,3.3-1.5,3.3-3.3c0-1.8-1.5-3.3-3.3-3.3c-1.8,0-3.3,1.5-3.3,3.3
			C34.9,43,36.4,44.5,38.2,44.5"/>
		<path fill-rule="evenodd" clip-rule="evenodd" fill="#FFFFFF" d="M101.6,43.8c0,0-19.4-40.2-20.2-41.5c-0.6-1.1-1.5-2-2.7-2.2
			c-1.5-0.3-3.3,0.5-3.3,0.5S57.4,8,55.8,8.8c-2.2,1-3.9,2.9-3.9,2.9s-7.1,7.2-15.7,15.9c-0.4,0.4-0.5,0.9-0.2,1.3
			c0.3,0.3,1.5,0.1,1.8,0.1c6.9,0,12.6,5,12.6,12.4c0,6.4-5.3,12.1-12.6,12.1c-6.1,0-12.2-5.3-12-12.7c0-0.7,0.2-1.3-0.2-1.6
			c-0.4-0.3-0.9-0.2-1.2,0.2c-6.3,6.3-11.2,11.4-11.8,11.9c-0.9,0.9-1.4,2.2-1.3,3.4c0.2,2.1,1.4,2.9,1.4,2.9S26.5,69,28.2,70.2
			c1.5,1,3.1,1,3.1,1h44.6c0,0,1.6,0,2.4-0.3c0.9-0.3,2.1-1.6,2.1-1.6s19.6-18.7,20.4-19.5c0.8-0.8,1.5-1.8,1.5-2.8
			C102.4,45.3,101.6,43.8,101.6,43.8 M81.4,30.7c0.8-0.8,1.9-1.3,3-1.3c1.2,0,2.2,0.4,3,1.3c0.8,0.8,1.2,1.8,1.2,3s-0.4,2.2-1.2,3.1
			c-0.8,0.8-1.8,1.2-3,1.2c-1.2,0-2.2-0.4-3-1.3c-0.8-0.8-1.3-1.9-1.3-3C80.1,32.5,80.6,31.5,81.4,30.7 M57.5,30.7
			c0.8-0.8,1.9-1.3,3-1.3c1.2,0,2.2,0.4,3,1.3c0.8,0.8,1.2,1.8,1.2,3s-0.4,2.2-1.2,3.1c-0.8,0.8-1.8,1.2-3,1.2c-1.2,0-2.2-0.4-3-1.3
			c-0.8-0.8-1.3-1.9-1.3-3C56.2,32.5,56.6,31.5,57.5,30.7 M63.6,60.6c-0.8,0.8-1.8,1.2-3,1.2c-1.2,0-2.2-0.4-3-1.3
			c-0.8-0.8-1.3-1.9-1.3-3c0-1.2,0.4-2.1,1.3-3c0.8-0.8,1.9-1.3,3-1.3c1.2,0,2.2,0.4,3,1.3c0.8,0.8,1.2,1.8,1.2,3
			C64.8,58.8,64.4,59.8,63.6,60.6 M64.3,49.4c-1.1,1-2.3,1.6-3.8,1.6s-2.8-0.5-3.8-1.6c-1-1-1.6-2.3-1.6-3.8s0.5-2.8,1.6-3.8
			c1.1-1.1,2.3-1.6,3.8-1.6c2.7,0,4.4-0.4,5.3-1.3c0.9-0.9,1.3-2.6,1.3-5.3c0-1.5,0.5-2.8,1.6-3.8c1.1-1,2.3-1.6,3.8-1.6
			s2.7,0.5,3.8,1.5c1,1,1.6,2.3,1.6,3.8s-0.5,2.8-1.6,3.8c-1,1-2.3,1.5-3.8,1.5c-2.7,0-4.5,0.4-5.3,1.3c-0.8,0.9-1.3,2.6-1.3,5.3
			C65.9,47.1,65.4,48.4,64.3,49.4 M76.7,45.6c0,1.2-0.4,2.2-1.2,3.1c-0.8,0.8-1.8,1.2-3,1.2c-1.2,0-2.2-0.4-3-1.3
			c-0.8-0.8-1.3-1.9-1.3-3c0-1.1,0.4-2.1,1.3-3c0.8-0.8,1.9-1.3,3-1.3c1.2,0,2.2,0.4,3,1.3C76.3,43.4,76.7,44.4,76.7,45.6
			 M88.2,49.4c-1,1-2.3,1.6-3.8,1.6c-2.7,0-4.5,0.4-5.3,1.3c-0.8,0.9-1.3,2.6-1.3,5.3c0,1.5-0.5,2.8-1.6,3.8S73.9,63,72.4,63
			s-2.8-0.5-3.8-1.5c-1-1-1.5-2.3-1.5-3.8s0.5-2.8,1.6-3.8c1.1-1.1,2.3-1.6,3.8-1.6c2.7,0,4.4-0.4,5.3-1.3c0.9-0.9,1.3-2.6,1.3-5.3
			c0-1.5,0.5-2.8,1.6-3.8c1.1-1,2.3-1.6,3.8-1.6s2.7,0.5,3.8,1.5c1,1,1.5,2.3,1.5,3.8C89.8,47.1,89.3,48.4,88.2,49.4"/>
	</g>
</g>
</svg>
