<?xml version="1.0" encoding="utf-8"?>
<!-- Generator: Adobe Illustrator 26.5.0, SVG Export Plug-In . SVG Version: 6.00 Build 0)  -->
<svg version="1.1" id="Layer_1" xmlns="http://www.w3.org/2000/svg" xmlns:xlink="http://www.w3.org/1999/xlink" x="0px" y="0px"
	 viewBox="0 0 115 71" enable-background="new 0 0 115 71" xml:space="preserve">
<path fill-rule="evenodd" clip-rule="evenodd" fill="#FFFFFF" d="M113,70.7c-0.7,0-1.1-0.6-1.1-1.2c0-0.7,0.5-1.2,1.1-1.2
	c0.6,0,1.1,0.5,1.1,1.2C114.2,70.2,113.7,70.7,113,70.7z M113,68c-0.8,0-1.5,0.6-1.5,1.5c0,0.8,0.6,1.5,1.5,1.5
	c0.8,0,1.5-0.6,1.5-1.5C114.5,68.6,113.8,68,113,68z M112.7,69.4V69h0.3c0.2,0,0.4,0,0.4,0.2c0,0.2-0.2,0.3-0.4,0.3
	C113,69.4,112.7,69.4,112.7,69.4z M113.7,69.2c0-0.3-0.2-0.5-0.6-0.5h-0.6v1.6h0.3v-0.7h0.3l0.4,0.7h0.3l-0.5-0.7
	C113.5,69.6,113.7,69.5,113.7,69.2z M94.8,63c0,0.4-0.3,0.7-0.7,0.7l-6.5,0v-4.5h6.5c0.4,0,0.7,0.3,0.7,0.7
	C94.8,59.8,94.8,63,94.8,63z M97.9,63.7v-4.5c0-1.6-1.3-2.8-2.8-2.8H84.5V71h3.1v-4.5h4.7l3.1,4.5h3.4l-3.1-4.5
	C96.9,66.2,97.9,65,97.9,63.7z M27.1,63c0,0.4-0.3,0.7-0.7,0.7l-6.5,0v-4.5h6.5c0.4,0,0.7,0.3,0.7,0.7C27.1,59.8,27.1,63,27.1,63z
	 M30.2,63.7v-4.5c0-1.6-1.3-2.8-2.8-2.8H16.8V71h3.1v-4.5h4.7l3.1,4.5H31l-3.1-4.5C29.2,66.2,30.2,65,30.2,63.7z M111.6,56.3l-4.1,6
	l-4.1-6H100l6,8.8V71h3.1v-5.8l6-8.8L111.6,56.3L111.6,56.3z M33.8,71h13.3v-2.8H36.9v-3.1h8.6v-2.8h-8.6v-3.1h10.2v-2.8H33.8
	L33.8,71L33.8,71z M77.7,67.5c0,0.4-0.3,0.7-0.7,0.7h-5.7c-0.4,0-0.7-0.3-0.7-0.7v-7.6c0-0.4,0.3-0.7,0.7-0.7H77
	c0.4,0,0.7,0.3,0.7,0.7V67.5z M78,56.4h-7.6c-1.6,0-2.8,1.3-2.8,2.8v9c0,1.6,1.2,2.8,2.8,2.8H78c1.6,0,2.8-1.3,2.8-2.8c0,0,0,0,0,0
	v-9C80.8,57.6,79.5,56.4,78,56.4z M54.6,59.2H62l1.9-2.8H53.6c-1.6,0-2.8,1.3-2.8,2.8v9c0,1.6,1.2,2.8,2.8,2.8h10.2v-8.7h-4.7V65
	h1.6v3.1h-6.1c-0.4,0-0.7-0.3-0.7-0.7v-7.6C53.9,59.5,54.2,59.2,54.6,59.2L54.6,59.2z M3.8,59.2h7.4l1.9-2.8H2.8
	c-1.6,0-2.8,1.3-2.8,2.8v9C0,69.7,1.2,71,2.8,71H13v-8.7H8.4V65h1.6v3.1H3.8c-0.4,0-0.7-0.3-0.7-0.7v-7.6
	C3.1,59.5,3.4,59.2,3.8,59.2L3.8,59.2z M63.5,10.1L90,50.7h6.6L63.5,0l-9.9,15.2L73,45h-6.6L43.6,10.1L17.1,50.7H37l6.6-10.1
	l6.6,10.1h6.6L43.6,30.4L34.1,45h-6.6l16.2-24.8l19.9,30.4h19.9L60.2,15.2L63.5,10.1L63.5,10.1z"/>
</svg>
