<?xml version="1.0" encoding="utf-8"?>
<!-- Generator: Adobe Illustrator 26.5.0, SVG Export Plug-In . SVG Version: 6.00 Build 0)  -->
<svg version="1.1" id="Layer_1" xmlns="http://www.w3.org/2000/svg" xmlns:xlink="http://www.w3.org/1999/xlink" x="0px" y="0px"
	 viewBox="0 0 18 22" enable-background="new 0 0 18 22" xml:space="preserve">
<g>
	<path fill="#FFFFFF" d="M10.4,22H7.6C3.4,22,0,18.4,0,14.1V6.7h18v7.4C18,18.4,14.6,22,10.4,22z M2.2,8.9v5.2
		c0,3.1,2.4,5.7,5.5,5.7h2.8c3.1,0,5.5-2.6,5.5-5.7V8.9H2.2z"/>
	<path fill="#FFFFFF" d="M14.4,7.8h-2.2V5.4c0-1.7-1.4-3.2-3.2-3.2S5.8,3.7,5.8,5.4v2.3H3.7V5.4C3.7,2.5,6,0,9,0s5.4,2.5,5.4,5.4
		V7.8z"/>
</g>
</svg>
