<?xml version="1.0" encoding="utf-8"?>
<!-- Generator: Adobe Illustrator 26.5.0, SVG Export Plug-In . SVG Version: 6.00 Build 0)  -->
<svg version="1.1"
	 id="svg2" xmlns:rdf="http://www.w3.org/1999/02/22-rdf-syntax-ns#" xmlns:dc="http://purl.org/dc/elements/1.1/" xmlns:inkscape="http://www.inkscape.org/namespaces/inkscape" xmlns:cc="http://creativecommons.org/ns#" xmlns:svg="http://www.w3.org/2000/svg" xmlns:sodipodi="http://sodipodi.sourceforge.net/DTD/sodipodi-0.dtd" inkscape:version="0.46" sodipodi:version="0.32"
	 xmlns="http://www.w3.org/2000/svg" xmlns:xlink="http://www.w3.org/1999/xlink" x="0px" y="0px" viewBox="0 0 250 40"
	 enable-background="new 0 0 250 40" xml:space="preserve">
<defs>
	
		<inkscape:perspective  id="perspective35" inkscape:persp3d-origin="328.75 : 35 : 1" inkscape:vp_x="0 : 52.5 : 1" inkscape:vp_y="0 : 1000 : 0" inkscape:vp_z="657.5 : 52.5 : 1" sodipodi:type="inkscape:persp3d">
		</inkscape:perspective>
</defs>
<sodipodi:namedview  bordercolor="#666666" borderopacity="1.0" gridtolerance="10.0" guidetolerance="10.0" id="base" inkscape:current-layer="svg2" inkscape:cx="328.75" inkscape:cy="52.5" inkscape:pageopacity="0.0" inkscape:pageshadow="2" inkscape:window-height="750" inkscape:window-width="1280" inkscape:window-x="-8" inkscape:window-y="-8" inkscape:zoom="0.82737643" objecttolerance="10.0" pagecolor="#ffffff" showgrid="false">
	</sodipodi:namedview>
<g id="_x23_fefefdff">
</g>
<g id="_x23_3d3f8fff">
	<path id="path6" fill="#FFFFFF" d="M145.7,0h2.9c3.6,0.6,6.8,2.7,8.6,5.9c-4-0.3-8.3,0.8-11.2,3.7c-3.3,3.1-4.6,7.9-3.8,12.3
		c-4.7-2.2-7.7-7.9-6.4-13C136.8,4.2,140.9,0.6,145.7,0z"/>
	<path id="path8" fill="#FFFFFF" d="M0.7,7.4C1.4,4,4.7,1.6,8,1.5c6-0.1,12.1,0,18.1-0.1c0.1,1.7,0.1,3.4,0,5.2
		c-5.7-0.1-11.4,0-17.1,0c-0.9,0-2,0-2.7,0.7c-1.5,1.2-0.9,4,1,4.4c5.2,1.6,10.3,3.3,15.5,4.9c3.3,0.9,5.9,4.2,5.8,7.7
		c0.3,4.2-3.5,8.2-7.7,8.3c-6.8,0.2-13.5,0-20.3,0.1c-0.6-1.6-0.4-3.4,0-5c6.6,0,13.3,0.1,19.9,0c2.1,0.1,4-2.4,3-4.4
		c-0.5-1.5-2.2-1.9-3.5-2.3c-4.7-1.5-9.4-3-14.2-4.4C2,15.3-0.4,11.1,0.7,7.4z"/>
	<path id="path10" fill="#FFFFFF" d="M207.2,1.4c1.6,0.1,3.3,0.1,4.9,0.1c0,1.7,0,3.4,0,5c2.6,0,5.2,0,7.8,0c0,1.6,0,3.3,0,4.9
		c-2.6,0-5.3,0-7.9,0.1c0.1,4.2,0,8.5,0,12.7c0,1.7,1.4,3.3,3.1,3.3c2.4,0,4.8,0,7.2,0c0,1.7,0,3.3,0,5c-3.9-0.3-8.3,0.9-11.7-1.5
		c-2.3-1.5-3.6-4.1-3.6-6.8C207.2,16.6,207.2,9,207.2,1.4z"/>
	<path id="path12" fill="#FFFFFF" d="M198.6,6.6c1.6-0.3,3.2,0,4.8-0.2c0.1,8.7,0.1,17.5,0,26.2c-1.6,0-3.3,0-4.9-0.1
		C198.6,23.9,198.4,15.3,198.6,6.6z"/>
	<path id="path14" fill="#FFFFFF" d="M230.5,7.2c1.6-0.7,3.5-0.5,5.2-0.6c1.9,0,3.8-0.1,5.7,0c4,0.2,7.4,3.7,7.6,7.6
		c0.1,2.4,0,4.9,0.1,7.3c-6.2-0.1-12.5,0-18.7-0.1c-0.1,1.2-0.2,2.5,0.1,3.7c0.3,1.3,1.5,2.4,2.9,2.3c4.4,0.1,8.9-0.1,13.3,0.1
		c0,1.7,0,3.3,0,5c-3.6,0.1-7.3,0-10.9,0c-2,0-4.2,0-6-1c-2.7-1.4-4.5-4.4-4.5-7.4c0-3.2,0-6.3,0-9.5
		C225.3,11.5,227.5,8.4,230.5,7.2 M231.2,12.6c-1.1,1.1-1,2.6-1,4c4.7,0.1,9.3,0.1,14,0c0-1.5,0-3.3-1.3-4.3
		c-1.6-1.4-3.8-0.7-5.7-0.9C235.2,11.6,232.7,10.9,231.2,12.6z"/>
	<path id="path16" fill="#FFFFFF" d="M34,6.5c4.8,0,9.6,0,14.5,0c4.2,0.1,7.8,4,7.6,8.2c0,6,0.1,11.9-0.1,17.9
		c-5.5-0.1-11,0-16.4-0.1c-2.3,0-4.5-1.1-6-2.9c-2.1-2.2-2.5-5.7-1.5-8.5c1.2-3,4.2-5.2,7.4-5.3c3.9-0.1,7.9,0.1,11.8-0.1
		c0.1-2-1-4.3-3.3-4.4c-4.7-0.1-9.3,0-14-0.1C34,9.8,34,8.2,34,6.5 M36.6,24.8c0.1,1.7,1.7,2.9,3.3,2.8c3.8,0,7.6,0.1,11.3,0
		c0-2.2,0-4.4,0-6.6c-3.8-0.1-7.5-0.1-11.3,0C37.9,20.9,36.1,22.8,36.6,24.8z"/>
	<path id="path18" fill="#FFFFFF" d="M60.7,11.3C62,8.5,64.9,6.5,68,6.5c7.4,0,14.9,0,22.3,0c4.1,0,7.7,3.7,7.8,7.8
		c0.1,6.1,0,12.2,0,18.3c-1.7,0-3.4,0-5,0c0.1-6,0.1-11.9,0-17.9c0-1.7-1.6-3.2-3.3-3.2c-2.9-0.1-5.7,0-8.6,0c0,7,0,14.1,0,21.1
		c-1.7,0-3.3,0-5,0c0-7-0.1-14.1,0.1-21.1c-2.7-0.1-5.3-0.1-8,0c-1.8-0.1-3.5,1.5-3.5,3.4c0,5.9,0,11.8,0,17.7c-1.7,0-3.3,0-5,0
		c0.1-5,0-10,0-15C59.9,15.5,59.7,13.2,60.7,11.3z"/>
	<path id="path20" fill="#FFFFFF" d="M102.1,12.4c0.2-3.2,3.1-5.9,6.3-5.9c4.9-0.1,9.8,0,14.7,0c0,1.6,0,3.3,0,4.9
		c-4.8,0-9.5,0-14.3,0c-1.7-0.2-2.6,2.5-0.8,3.2c4,1.4,8.2,2.6,12.2,3.9c1.8,0.5,3.5,1.5,4.4,3.1c1.8,2.7,1.3,6.6-1,8.9
		c-1.4,1.3-3.4,2.1-5.3,2c-5.5,0-11,0-16.5,0c0-1.7,0-3.3,0-5c5.7-0.2,11.3,0.1,17-0.1c1.2,0,2.2-1.2,1.9-2.4c0-1.3-1.3-1.7-2.3-2
		c-4-1.2-7.9-2.5-11.9-3.7C103.6,18.6,101.6,15.5,102.1,12.4z"/>
	<path id="path22" fill="#FFFFFF" d="M174.2,7.3c2.4-1.2,5.3-0.7,7.9-0.8c2.8,0.1,5.7-0.4,8.3,0.9c2.7,1.4,4.4,4.3,4.4,7.3
		c0,6,0,11.9,0,17.9c-1.7,0-3.3,0-5,0c-0.1-6,0.1-11.9,0-17.9c0.1-2-2-3.5-3.9-3.3c-2.7,0-5.4-0.1-8.1,0c-1.7,0.1-3.3,1.5-3.3,3.3
		c-0.1,6,0,11.9-0.1,17.9c-1.6,0-3.3,0-4.9-0.1c0.1-6.1,0-12.2,0.1-18.3C169.6,11.3,171.5,8.6,174.2,7.3z"/>
	<path id="path24" fill="#FFFFFF" d="M152.2,8.2c3.2-0.8,6.9-0.3,9.6,1.6c4.2,2.8,6.2,8.6,4.3,13.3c-0.9,2.7-2.9,4.9-5.4,6.3
		c0.6-4.5-1.1-9.3-4.7-12.1c-3.1-2.6-7.3-3.5-11.3-2.9C146.3,11.5,149,9.1,152.2,8.2z"/>
	<path id="path26" fill="#FFFFFF" d="M127.7,19.5c-0.1-4.1,2.5-7.7,5.8-9.9c-0.2,4.3,1,8.9,4.4,11.7c3.1,3,7.6,4,11.7,3.3
		c-2,4.4-6.9,7.1-11.7,6.5C132.2,30.7,127.3,25.3,127.7,19.5z"/>
	<path id="path28" fill="#FFFFFF" d="M152.3,17.1c4,1.8,6.8,6.1,6.6,10.5c0.1,2.7-1,5.4-2.7,7.4c-2.8,3.4-7.6,4.8-11.8,3.6
		c-3-0.7-5.6-2.9-7.1-5.6c3.2,0.3,6.5-0.2,9.2-2C151,28.1,153.4,22.4,152.3,17.1z"/>
</g>
</svg>
