<?xml version="1.0" encoding="utf-8"?>
<!-- Generator: Adobe Illustrator 26.5.0, SVG Export Plug-In . SVG Version: 6.00 Build 0)  -->
<svg version="1.1" id="Layer_1" xmlns="http://www.w3.org/2000/svg" xmlns:xlink="http://www.w3.org/1999/xlink" x="0px" y="0px"
	 viewBox="0 0 22 22" enable-background="new 0 0 22 22" xml:space="preserve">
<g>
	<path fill="#FFFFFF" d="M8.5,17.1c-2.2,0-4.4-0.8-6-2.5c-3.3-3.3-3.3-8.7,0-12.1C4.1,0.9,6.3,0,8.5,0s4.4,0.9,6,2.5l0,0l0,0
		c3.3,3.3,3.3,8.7,0,12.1C12.9,16.2,10.7,17.1,8.5,17.1z M8.5,2.2c-1.7,0-3.3,0.7-4.5,1.8c-2.5,2.5-2.5,6.5,0,8.9
		c2.5,2.5,6.5,2.5,8.9,0c2.5-2.5,2.5-6.5,0-8.9l0,0C11.8,2.9,10.2,2.2,8.5,2.2z"/>
	
		<rect x="16.4" y="12.2" transform="matrix(0.7071 -0.7072 0.7072 0.7071 -7.2485 17.5)" fill="#FFFFFF" width="2.2" height="10.5"/>
</g>
</svg>
