<?xml version="1.0" encoding="utf-8"?>
<!-- Generator: Adobe Illustrator 26.5.0, SVG Export Plug-In . SVG Version: 6.00 Build 0)  -->
<svg version="1.1" id="Layer_1" xmlns="http://www.w3.org/2000/svg" xmlns:xlink="http://www.w3.org/1999/xlink" x="0px" y="0px"
	 viewBox="0 0 95 60" enable-background="new 0 0 95 60" xml:space="preserve">
<g>
	<g>
		<path d="M64.5,0C81.3,0,95,13.5,95,30S81.3,60,64.5,60S34,46.5,34,30S47.6,0,64.5,0z M64.5,59.3c16.4,0,29.8-13.1,29.8-29.3
			c0-16.1-13.4-29.3-29.8-29.3S34.7,13.9,34.7,30C34.7,46.1,48.1,59.3,64.5,59.3z"/>
		<polygon points="62.5,22.7 69.2,29.3 62.5,35.8 62,35.3 68.2,29.3 62,23.2 		"/>
	</g>
	<rect y="28.9" width="68.7" height="0.7"/>
</g>
</svg>
