<?xml version="1.0" encoding="utf-8"?>
<!-- Generator: Adobe Illustrator 26.5.0, SVG Export Plug-In . SVG Version: 6.00 Build 0)  -->
<svg version="1.1" id="Layer_1" xmlns="http://www.w3.org/2000/svg" xmlns:xlink="http://www.w3.org/1999/xlink" x="0px" y="0px"
	 viewBox="0 0 40 40" enable-background="new 0 0 40 40" xml:space="preserve">
<g>
	<path d="M8.7,15.1c-0.8,0-1.4,0.6-1.4,1.4c0,0.8,0.6,1.4,1.4,1.4c0.8,0,1.4-0.6,1.4-1.4C10.1,15.8,9.5,15.1,8.7,15.1z"/>
	<path d="M22.3,15c-0.8,0-1.5,0.7-1.5,1.5c0,0.8,0.7,1.5,1.5,1.5c0.8,0,1.5-0.7,1.5-1.5C23.8,15.7,23.2,15,22.3,15z"/>
	<path d="M34.6,1.4H5.4C2.4,1.4,0,3.8,0,6.8v17.4c0,3,2.4,5.4,5.4,5.4h10.3l3.5,8.3c0,0,0.2,0.7,0.8,0.7l0,0c0.6,0,0.8-0.7,0.8-0.7
		l3.5-8.3h10.3c3,0,5.4-2.4,5.4-5.4V6.8C40,3.8,37.6,1.4,34.6,1.4z M12.6,16.8c0,3.2-3.3,3.3-3.3,3.3c-1.3,0-2-0.8-2-0.8v0.6H4.9
		V9.9c0,0,0,0,0,0v0c0.1,0,2.4,0,2.4,0v3.8c0.6-1,2.2-0.9,2.2-0.9C13,13.1,12.6,16.8,12.6,16.8z M16.8,13.1v6.8h-2.3v-6.7
		c0-0.9-1.1-1.2-1.1-1.2V9.6C17.1,9.8,16.8,13.1,16.8,13.1z M22.3,20.1c-2.2,0-3.9-1.6-3.9-3.6c0-2,1.8-3.6,3.9-3.6
		c2.2,0,3.9,1.6,3.9,3.6C26.3,18.5,24.5,20.1,22.3,20.1z M35.2,20.1c0,0,0,3.4-3.5,3.4h-1.1v-2.2h0.6c0,0,1.5,0.1,1.4-2.1
		c0,0-0.3,0.9-2.3,0.9c0,0-2.9-0.2-2.9-3.1V16c0,0,0.1-2.9,3.3-3.2c0,0,1.3-0.1,2,0.9V13h2.4V20.1z"/>
	<path d="M31.4,15c-0.8,0-1.4,0.6-1.4,1.4c0,0.8,0.6,1.4,1.4,1.4c0.8,0,1.4-0.6,1.4-1.4C32.9,15.7,32.2,15,31.4,15z"/>
</g>
</svg>
