<?xml version="1.0" encoding="utf-8"?>
<!-- Generator: Adobe Illustrator 26.5.0, SVG Export Plug-In . SVG Version: 6.00 Build 0)  -->
<svg version="1.1" id="Layer_1" xmlns="http://www.w3.org/2000/svg" xmlns:xlink="http://www.w3.org/1999/xlink" x="0px" y="0px"
	 viewBox="0 0 40 28" enable-background="new 0 0 40 28" xml:space="preserve">
<path d="M39.2,4.4c-0.5-1.7-1.8-3.1-3.5-3.5C32.5,0,20,0,20,0S7.5,0,4.3,0.8C2.7,1.3,1.3,2.7,0.8,4.4C0,7.5,0,14,0,14s0,6.5,0.8,9.6
	c0.5,1.7,1.8,3.1,3.5,3.5C7.5,28,20,28,20,28s12.5,0,15.7-0.8c1.7-0.5,3.1-1.8,3.5-3.5C40,20.5,40,14,40,14S40,7.5,39.2,4.4z M16,20
	V8l10.4,6L16,20z"/>
</svg>
