<?xml version="1.0" encoding="utf-8"?>
<!-- Generator: Adobe Illustrator 26.5.0, SVG Export Plug-In . SVG Version: 6.00 Build 0)  -->
<svg version="1.1" id="Layer_1" xmlns="http://www.w3.org/2000/svg" xmlns:xlink="http://www.w3.org/1999/xlink" x="0px" y="0px"
	 viewBox="0 0 40 40" enable-background="new 0 0 40 40" xml:space="preserve">
<path d="M20,3.6c5.3,0,6,0,8.1,0.1c5.4,0.2,8,2.8,8.2,8.2c0.1,2.1,0.1,2.7,0.1,8.1c0,5.3,0,6-0.1,8.1c-0.2,5.4-2.8,8-8.2,8.2
	c-2.1,0.1-2.7,0.1-8.1,0.1c-5.3,0-6,0-8.1-0.1c-5.4-0.2-8-2.8-8.2-8.2C3.6,26,3.6,25.3,3.6,20c0-5.3,0-6,0.1-8.1
	C4,6.5,6.5,4,11.9,3.7C14,3.6,14.7,3.6,20,3.6z M20,0c-5.4,0-6.1,0-8.2,0.1C4.5,0.5,0.5,4.5,0.1,11.8C0,13.9,0,14.6,0,20
	s0,6.1,0.1,8.2c0.3,7.3,4.4,11.3,11.6,11.6C13.9,40,14.6,40,20,40s6.1,0,8.2-0.1c7.3-0.3,11.3-4.4,11.6-11.6C40,26.1,40,25.4,40,20
	s0-6.1-0.1-8.2C39.6,4.5,35.5,0.5,28.2,0.1C26.1,0,25.4,0,20,0z M20,9.7C14.3,9.7,9.7,14.3,9.7,20S14.3,30.3,20,30.3
	S30.3,25.7,30.3,20C30.3,14.3,25.7,9.7,20,9.7z M20,26.7c-3.7,0-6.7-3-6.7-6.7c0-3.7,3-6.7,6.7-6.7s6.7,3,6.7,6.7
	C26.7,23.7,23.7,26.7,20,26.7z M30.7,6.9c-1.3,0-2.4,1.1-2.4,2.4s1.1,2.4,2.4,2.4c1.3,0,2.4-1.1,2.4-2.4S32,6.9,30.7,6.9z"/>
</svg>
