<?xml version="1.0" encoding="utf-8"?>
<!-- Generator: Adobe Illustrator 24.2.1, SVG Export Plug-In . SVG Version: 6.00 Build 0)  -->
<svg version="1.1" id="Layer_1" xmlns="http://www.w3.org/2000/svg" xmlns:xlink="http://www.w3.org/1999/xlink" x="0px" y="0px"
	 viewBox="0 0 51 54" style="enable-background:new 0 0 51 54;" xml:space="preserve">
<style type="text/css">
	.st0{fill:#FDDB00;}
	.st1{fill:#020202;}
</style>
<g>
	<path class="st0" d="M25.5,1.28c-13.41,0-24.29,10.07-24.29,22.49c0,9.17,3.84,13.55,9.09,17.55l0.02,0.01V52.1
		c0,0.51,0.58,0.8,0.99,0.5l9.21-6.85l0.2,0.09c1.54,0.28,3.14,0.44,4.77,0.44c13.41,0,24.29-10.07,24.29-22.49
		C49.79,11.35,38.91,1.28,25.5,1.28"/>
	<path class="st1" d="M25.5,0C11.42,0,0,10.57,0,23.61c0,9.63,4.03,14.23,9.55,18.42l0.03,0.01v11.3c0,0.53,0.61,0.84,1.04,0.52
		l9.67-7.19l0.21,0.09c1.62,0.3,3.3,0.46,5.01,0.46c14.08,0,25.5-10.57,25.5-23.61C51,10.57,39.58,0,25.5,0 M16.95,29.6
		c2.5,0,4.64-1.5,5.28-3.81h3.7c-0.9,4.45-4.37,7.37-8.98,7.37c-5.36,0-9.61-4-9.61-9.57c0-5.57,4.25-9.57,9.61-9.57
		c4.66,0,8.14,2.98,9,7.51h-3.69c-0.56-2.46-2.77-4-5.32-4c-3.6,0-6,2.57-6,6.06C10.95,27.08,13.68,29.6,16.95,29.6 M41.31,32.79
		h-3.39v-7.65c0-1.76-1.03-2.71-2.6-2.71c-1.76,0-2.89,1.08-2.89,3.26v7.1h-3.39V14.07h3.39v7.04c0.81-1.24,2.13-1.84,3.91-1.84
		c1.44,0,2.63,0.47,3.55,1.45c0.95,0.97,1.42,2.29,1.42,4V32.79z"/>
</g>
</svg>
